<svg width="175" height="148" viewBox="0 0 175 148" fill="none" xmlns="http://www.w3.org/2000/svg">
<path fill-rule="evenodd" clip-rule="evenodd" d="M0 6.72727L7.95455 0H71.5909L79.5455 6.72727V60.5455L71.5909 67.2727H7.95455L0 60.5455V6.72727ZM15.9091 13.4545V53.8182H63.6364V13.4545H15.9091ZM103.409 0L95.4546 6.72727V60.5455L103.409 67.2727H167.045L175 60.5455V6.72727L167.045 0H103.409ZM111.364 53.8182V13.4545H159.091V53.8182H111.364ZM143.182 148H127.273V121.091H95.4546V107.636H127.273V80.7273H143.182V107.636H175V121.091H143.182V148ZM7.95455 80.7273L0 87.4545V141.273L7.95455 148H71.5909L79.5455 141.273V87.4545L71.5909 80.7273H7.95455ZM15.9091 134.545V94.1818H63.6364V134.545H15.9091Z" fill="black"/>
</svg>
