<svg width="17" height="17" viewBox="0 0 17 17" fill="none" xmlns="http://www.w3.org/2000/svg">
<path fill-rule="evenodd" clip-rule="evenodd" d="M8.55027 16.9997C10.7389 16.9789 12.9054 16.073 14.4635 14.5348C16.3142 12.7075 17.267 10.0044 16.9347 7.4238C16.3649 3.00101 12.7262 0 8.4956 0C5.28176 0 2.15775 2.00881 0.787439 4.92172C-0.261592 7.15169 -0.263367 9.84415 0.787439 12.0784C2.14781 14.9708 5.2207 16.9689 8.44093 16.9997C8.47749 17.0001 8.5137 17.0001 8.55027 16.9997ZM8.45016 15.5833C5.1813 15.5518 2.13148 13.026 1.52478 9.78789C1.09736 7.50484 1.90463 5.0346 3.58556 3.41325C5.54872 1.52015 8.63369 0.88569 11.1986 1.95892C13.494 2.91928 15.2115 5.14854 15.5282 7.60462C15.7994 9.70969 15.0433 11.916 13.5576 13.4361C12.254 14.7691 10.4265 15.5649 8.54104 15.5833C8.51086 15.5833 8.48033 15.5833 8.45016 15.5833ZM4.05452 11.9421L7.51011 8.49774L4.05097 5.04982L5.0464 4.05797L8.50554 7.5059L12.0832 3.93978L13.0801 4.93304L9.50238 8.49951L13.0872 12.0727L12.0921 13.0649L8.50696 9.49136L5.05137 12.9358L4.05452 11.9421Z" fill="#E93626"/>
</svg>
