<svg width="180" height="145" viewBox="0 0 180 145" fill="none" xmlns="http://www.w3.org/2000/svg">
<path fill-rule="evenodd" clip-rule="evenodd" d="M90 0C139.707 0 180 33.277 180 74.3337C180 107.169 154.242 135.024 118.503 144.862C113.94 145.594 112.32 143.273 112.32 141.293C112.32 138.843 112.428 130.839 112.428 120.892C112.428 113.961 109.548 109.438 106.317 107.132C126.36 105.291 147.42 99.0042 147.42 70.4538C147.42 62.3338 143.928 55.7076 138.15 50.5021C139.086 48.6244 142.173 41.0636 137.268 30.8266C137.268 30.8266 129.726 28.8348 112.545 38.4483C105.354 36.8026 97.65 35.9745 90 35.9455C82.35 35.9745 74.655 36.8026 67.473 38.4483C50.274 28.8348 42.714 30.8266 42.714 30.8266C37.827 41.0636 40.914 48.6244 41.841 50.5021C36.09 55.7076 32.571 62.3338 32.571 70.4538C32.571 98.9317 53.586 105.315 73.575 107.192C71.001 109.048 68.67 112.322 67.86 117.129C62.73 119.029 49.698 122.316 41.67 110.955C41.67 110.955 36.909 103.813 27.873 103.291C27.873 103.291 19.098 103.197 27.261 107.808C27.261 107.808 33.156 110.092 37.251 118.683C37.251 118.683 42.534 131.95 67.572 127.455C67.617 133.669 67.698 139.524 67.698 141.293C67.698 143.258 66.042 145.558 61.551 144.869C25.785 135.045 0 107.176 0 74.3337C0 33.277 40.302 0 90 0Z" fill="white"/>
</svg>
