<svg width="175" height="148" viewBox="0 0 175 148" fill="none" xmlns="http://www.w3.org/2000/svg">
<path fill-rule="evenodd" clip-rule="evenodd" d="M87.5 0C135.826 0 175 33.9654 175 75.8716C175 109.386 149.957 137.817 115.211 147.859C110.775 148.606 109.2 146.237 109.2 144.217C109.2 141.716 109.305 133.546 109.305 123.393C109.305 116.319 106.505 111.702 103.364 109.349C122.85 107.469 143.325 101.053 143.325 71.9114C143.325 63.6235 139.93 56.8602 134.312 51.547C135.222 49.6304 138.224 41.9132 133.455 31.4644C133.455 31.4644 126.122 29.4314 109.419 39.2438C102.427 37.564 94.9375 36.7188 87.5 36.6892C80.0625 36.7188 72.5813 37.564 65.5988 39.2438C48.8775 29.4314 41.5275 31.4644 41.5275 31.4644C36.7763 41.9132 39.7775 49.6304 40.6788 51.547C35.0875 56.8602 31.6663 63.6235 31.6663 71.9114C31.6663 100.979 52.0975 107.493 71.5313 109.41C69.0288 111.304 66.7625 114.646 65.975 119.552C60.9875 121.491 48.3175 124.847 40.5125 113.251C40.5125 113.251 35.8838 105.961 27.0988 105.428C27.0988 105.428 18.5675 105.332 26.5037 110.039C26.5037 110.039 32.235 112.37 36.2162 121.139C36.2162 121.139 41.3525 134.68 65.695 130.092C65.7388 136.434 65.8175 142.411 65.8175 144.217C65.8175 146.222 64.2075 148.569 59.8412 147.866C25.0687 137.839 0 109.394 0 75.8716C0 33.9654 39.1825 0 87.5 0Z" fill="white"/>
</svg>
