<svg width="18" height="18" viewBox="0 0 18 18" fill="none" xmlns="http://www.w3.org/2000/svg">
<path fill-rule="evenodd" clip-rule="evenodd" d="M9 2C8.08075 2 7.1705 2.18106 6.32122 2.53284C5.47194 2.88463 4.70026 3.40024 4.05025 4.05025C3.40024 4.70026 2.88463 5.47194 2.53284 6.32122C2.18106 7.1705 2 8.08075 2 9C2 9.91925 2.18106 10.8295 2.53284 11.6788C2.88463 12.5281 3.40024 13.2997 4.05025 13.9497C4.70026 14.5998 5.47194 15.1154 6.32122 15.4672C7.1705 15.8189 8.08075 16 9 16C10.8565 16 12.637 15.2625 13.9497 13.9497C15.2625 12.637 16 10.8565 16 9C16 7.14348 15.2625 5.36301 13.9497 4.05025C12.637 2.7375 10.8565 2 9 2ZM0 9C0 6.61305 0.948212 4.32387 2.63604 2.63604C4.32387 0.948212 6.61305 0 9 0C11.3869 0 13.6761 0.948212 15.364 2.63604C17.0518 4.32387 18 6.61305 18 9C18 11.3869 17.0518 13.6761 15.364 15.364C13.6761 17.0518 11.3869 18 9 18C6.61305 18 4.32387 17.0518 2.63604 15.364C0.948212 13.6761 0 11.3869 0 9ZM8 5C8 4.73478 8.10536 4.48043 8.29289 4.29289C8.48043 4.10536 8.73478 4 9 4H9.01C9.27522 4 9.52957 4.10536 9.71711 4.29289C9.90464 4.48043 10.01 4.73478 10.01 5C10.01 5.26522 9.90464 5.51957 9.71711 5.70711C9.52957 5.89464 9.27522 6 9.01 6H9C8.73478 6 8.48043 5.89464 8.29289 5.70711C8.10536 5.51957 8 5.26522 8 5ZM8.01 13C8.01 13.2652 8.11536 13.5196 8.30289 13.7071C8.49043 13.8946 8.74478 14 9.01 14C9.27522 14 9.52957 13.8946 9.71711 13.7071C9.90464 13.5196 10.01 13.2652 10.01 13V8C10.01 7.73478 9.90464 7.48043 9.71711 7.29289C9.52957 7.10536 9.27522 7 9.01 7C8.74478 7 8.49043 7.10536 8.30289 7.29289C8.11536 7.48043 8.01 7.73478 8.01 8V13Z" fill="#2D73DD"/>
</svg>
