<svg width="175" height="148" viewBox="0 0 175 148" fill="none" xmlns="http://www.w3.org/2000/svg">
<path fill-rule="evenodd" clip-rule="evenodd" d="M87.5 114.364C113.859 114.364 135.227 96.2922 135.227 74C135.227 51.7078 113.859 33.6364 87.5 33.6364C61.1409 33.6364 39.7727 51.7078 39.7727 74C39.7727 96.2922 61.1409 114.364 87.5 114.364ZM87.5 100.909C105.072 100.909 119.318 88.8612 119.318 74C119.318 59.1385 105.072 47.0909 87.5 47.0909C69.9273 47.0909 55.6818 59.1385 55.6818 74C55.6818 88.8612 69.9273 100.909 87.5 100.909Z" fill="white"/>
<path d="M135.227 26.9092C130.834 26.9092 127.273 29.9211 127.273 33.6365C127.273 37.3518 130.834 40.3637 135.227 40.3637C139.621 40.3637 143.182 37.3518 143.182 33.6365C143.182 29.9211 139.621 26.9092 135.227 26.9092Z" fill="white"/>
<path fill-rule="evenodd" clip-rule="evenodd" d="M5.20195 22.0389C0 30.6732 0 41.9761 0 64.5818V83.4182C0 106.024 0 117.327 5.20195 125.961C9.77773 133.556 17.079 139.731 26.0596 143.6C36.269 148 49.6339 148 76.3636 148H98.6364C125.366 148 138.731 148 148.94 143.6C157.921 139.731 165.222 133.556 169.798 125.961C175 117.327 175 106.024 175 83.4182V64.5818C175 41.9761 175 30.6732 169.798 22.0389C165.222 14.444 157.921 8.26916 148.94 4.39937C138.731 0 125.366 0 98.6364 0H76.3636C49.6339 0 36.269 0 26.0596 4.39937C17.079 8.26916 9.77773 14.444 5.20195 22.0389ZM98.6364 13.4545H76.3636C62.7362 13.4545 53.4724 13.465 46.312 13.9598C39.3371 14.4417 35.7703 15.3152 33.2821 16.3874C27.2951 18.9673 22.4276 23.0839 19.377 28.1472C18.1092 30.2515 17.0763 33.268 16.5065 39.1667C15.9215 45.2224 15.9091 53.0569 15.9091 64.5818V83.4182C15.9091 94.9433 15.9215 102.777 16.5065 108.833C17.0763 114.732 18.1092 117.749 19.377 119.853C22.4276 124.916 27.2951 129.032 33.2821 131.612C35.7703 132.685 39.3371 133.559 46.312 134.04C53.4724 134.535 62.7362 134.545 76.3636 134.545H98.6364C112.264 134.545 121.527 134.535 128.688 134.04C135.663 133.559 139.23 132.685 141.718 131.612C147.705 129.032 152.572 124.916 155.623 119.853C156.891 117.749 157.924 114.732 158.494 108.833C159.078 102.777 159.091 94.9433 159.091 83.4182V64.5818C159.091 53.0569 159.078 45.2224 158.494 39.1667C157.924 33.268 156.891 30.2515 155.623 28.1472C152.572 23.0839 147.705 18.9673 141.718 16.3874C139.23 15.3152 135.663 14.4417 128.688 13.9598C121.527 13.465 112.264 13.4545 98.6364 13.4545Z" fill="white"/>
</svg>
