<svg width="185" height="145" viewBox="0 0 185 145" fill="none" xmlns="http://www.w3.org/2000/svg">
<path fill-rule="evenodd" clip-rule="evenodd" d="M92.5 111.683C120.365 111.683 142.955 94.0353 142.955 72.2656C142.955 50.4959 120.365 32.848 92.5 32.848C64.6347 32.848 42.0455 50.4959 42.0455 72.2656C42.0455 94.0353 64.6347 111.683 92.5 111.683ZM92.5 98.544C111.077 98.544 126.136 86.7785 126.136 72.2656C126.136 57.7525 111.077 45.9872 92.5 45.9872C73.9232 45.9872 58.8637 57.7525 58.8637 72.2656C58.8637 86.7785 73.9232 98.544 92.5 98.544Z" fill="white"/>
<path d="M142.955 26.2784C138.31 26.2784 134.545 29.2198 134.545 32.848C134.545 36.4763 138.31 39.4176 142.955 39.4176C147.599 39.4176 151.364 36.4763 151.364 32.848C151.364 29.2198 147.599 26.2784 142.955 26.2784Z" fill="white"/>
<path fill-rule="evenodd" clip-rule="evenodd" d="M5.49921 21.5224C0 29.9543 0 40.9923 0 63.0682V81.4631C0 103.539 0 114.577 5.49921 123.009C10.3365 130.426 18.055 136.456 27.5487 140.235C38.3415 144.531 52.4701 144.531 80.7273 144.531H104.273C132.53 144.531 146.659 144.531 157.451 140.235C166.945 136.456 174.664 130.426 179.5 123.009C185 114.577 185 103.539 185 81.4631V63.0682C185 40.9923 185 29.9543 179.5 21.5224C174.664 14.1055 166.945 8.07536 157.451 4.29626C146.659 0 132.53 0 104.273 0H80.7273C52.4701 0 38.3415 0 27.5487 4.29626C18.055 8.07536 10.3365 14.1055 5.49921 21.5224ZM104.273 13.1392H80.7273C66.3212 13.1392 56.528 13.1495 48.9584 13.6326C41.585 14.1032 37.8143 14.9563 35.184 16.0034C28.8549 18.5228 23.7092 22.5429 20.4843 27.4875C19.1441 29.5425 18.0521 32.4883 17.4497 38.2488C16.8313 44.1625 16.8182 51.8134 16.8182 63.0682V81.4631C16.8182 92.7181 16.8313 100.368 17.4497 106.282C18.0521 112.043 19.1441 114.989 20.4843 117.044C23.7092 121.988 28.8549 126.008 35.184 128.528C37.8143 129.575 41.585 130.428 48.9584 130.899C56.528 131.382 66.3212 131.392 80.7273 131.392H104.273C118.679 131.392 128.472 131.382 136.041 130.899C143.415 130.428 147.186 129.575 149.816 128.528C156.145 126.008 161.291 121.988 164.515 117.044C165.856 114.989 166.948 112.043 167.55 106.282C168.168 100.368 168.182 92.7181 168.182 81.4631V63.0682C168.182 51.8134 168.168 44.1625 167.55 38.2488C166.948 32.4883 165.856 29.5425 164.515 27.4875C161.291 22.5429 156.145 18.5228 149.816 16.0034C147.186 14.9563 143.415 14.1032 136.041 13.6326C128.472 13.1495 118.679 13.1392 104.273 13.1392Z" fill="white"/>
</svg>
