<svg width="176" height="148" viewBox="0 0 176 148" fill="none" xmlns="http://www.w3.org/2000/svg">
<path d="M43.7709 46.9584C50.3638 46.9584 55.7084 42.4533 55.7084 36.8959C55.7084 31.3385 50.3638 26.8334 43.7709 26.8334C37.178 26.8334 31.8334 31.3385 31.8334 36.8959C31.8334 42.4533 37.178 46.9584 43.7709 46.9584Z" fill="white"/>
<path d="M31.8334 60.375C31.8334 56.6701 35.3965 53.6666 39.7917 53.6666H47.75C52.1453 53.6666 55.7084 56.67 55.7084 60.375V114.042C55.7084 117.747 52.1453 120.75 47.75 120.75H39.7917C35.3965 120.75 31.8334 117.747 31.8334 114.042V60.375Z" fill="white"/>
<path d="M79.5833 120.75H87.5417C91.9371 120.75 95.5 117.747 95.5 114.042V83.8541C95.5 73.7916 119.375 67.0833 119.375 80.5V114.044C119.375 117.749 122.938 120.75 127.333 120.75H135.292C139.687 120.75 143.25 117.747 143.25 114.042V73.7916C143.25 60.375 131.312 53.6666 115.396 53.6666C99.4792 53.6666 95.5 63.7291 95.5 63.7291V60.375C95.5 56.67 91.9371 53.6666 87.5417 53.6666H79.5833C75.1879 53.6666 71.625 56.6701 71.625 60.375V114.042C71.625 117.747 75.1879 120.75 79.5833 120.75Z" fill="white"/>
<path fill-rule="evenodd" clip-rule="evenodd" d="M151.208 0C164.394 0 175.083 9.0103 175.083 20.125V127.458C175.083 138.573 164.394 147.583 151.208 147.583H23.875C10.6892 147.583 0 138.573 0 127.458V20.125C0 9.0103 10.6892 0 23.875 0H151.208ZM151.208 13.4167C155.604 13.4167 159.167 16.4201 159.167 20.125V127.458C159.167 131.163 155.604 134.167 151.208 134.167H23.875C19.4798 134.167 15.9167 131.163 15.9167 127.458V20.125C15.9167 16.4201 19.4798 13.4167 23.875 13.4167H151.208Z" fill="white"/>
</svg>
