<svg width="31" height="31" viewBox="0 0 31 31" fill="none" xmlns="http://www.w3.org/2000/svg">
<path d="M28.4798 17.5628C29.7656 17.7672 30.6594 18.9839 30.2626 20.2239C29.4193 22.8594 27.8806 25.2358 25.7898 27.0918C23.108 29.4724 19.6837 30.8495 16.1003 30.9884C12.517 31.1273 8.99641 30.0194 6.13836 27.8535C3.2803 25.6877 1.26165 22.5978 0.426358 19.1104C-0.408938 15.6231 -0.00919498 11.954 1.55747 8.7283C3.12414 5.50262 5.76081 2.91995 9.01821 1.42036C12.2756 -0.07924 15.9522 -0.402986 19.4215 0.504282C22.1263 1.21161 24.5747 2.63306 26.5205 4.6005C27.436 5.52615 27.1904 7.01584 26.1367 7.78052V7.78052C25.0831 8.5452 23.6226 8.28587 22.6477 7.42309C21.3882 6.30854 19.8769 5.49649 18.2287 5.06548C15.8147 4.43418 13.2564 4.65945 10.9898 5.70292C8.72315 6.74639 6.88847 8.54349 5.79833 10.788C4.70819 13.0326 4.43003 15.5856 5.01126 18.0123C5.59249 20.4389 6.99713 22.5889 8.98586 24.096C10.9746 25.6031 13.4244 26.374 15.9177 26.2773C18.4111 26.1807 20.7939 25.2225 22.66 23.566C23.934 22.435 24.9134 21.0264 25.5313 19.4622C26.0096 18.2513 27.1941 17.3585 28.4798 17.5628V17.5628Z" fill="#D6E22C"/>
</svg>
