<svg width="175" height="152" viewBox="0 0 175 152" fill="none" xmlns="http://www.w3.org/2000/svg">
<path d="M6.43604 0H114.34C117.84 0 121.048 2.80148 121.048 6.16327V19.3303C121.048 22.692 118.132 25.7737 114.632 25.7737H6.72767C3.22807 25.7737 0.0201088 22.9722 0.0201088 19.6104V6.44342C-0.271524 3.08163 2.64481 0 6.43604 0ZM154.877 0H168.292C171.792 0 175 2.80148 175 6.16327V19.3303C175 22.692 172.084 25.7737 168.584 25.7737H154.877C151.378 25.7737 148.17 22.9722 148.17 19.6104V6.44342C147.878 3.08163 150.503 0.280149 154.002 0H154.877ZM162.168 80.9629C142.337 113.74 95.3841 128.588 64.1794 114.02L55.722 110.379C52.8057 108.978 49.8894 112.059 50.7643 114.861L58.93 141.195C59.8049 143.996 58.0551 146.798 55.4304 147.918L45.5149 151.56C43.1818 152.681 40.5571 151.56 39.3906 149.319C39.3906 149.039 39.099 148.759 39.099 148.479L19.2679 84.885C18.393 82.0835 19.8512 79.0019 22.7675 78.1615L86.9268 54.0687C89.2599 52.9481 91.8846 54.0687 93.0511 56.3099C93.0511 56.59 93.3427 56.8702 93.3427 57.1503L96.5507 66.9555C97.4256 69.757 95.9674 72.8386 93.0511 73.6791L66.8041 83.7644C64.7627 84.3247 63.8878 86.2858 64.471 88.2468C64.7627 89.0872 65.3459 89.9277 66.2208 90.2078L71.1786 92.449C95.3842 103.935 132.422 92.1689 147.003 68.9166C148.461 66.6754 153.711 66.1151 156.335 67.2357L161.293 71.718C163.918 72.8386 163.626 78.4416 162.168 80.9629Z" fill="white"/>
</svg>
