<svg width="175" height="152" viewBox="0 0 175 152" fill="none" xmlns="http://www.w3.org/2000/svg">
<path d="M65.625 0C63.5945 0 61.6471 0.560499 60.2112 1.55819C58.7754 2.55589 57.9688 3.90905 57.9688 5.32V126.92C57.9688 128.331 58.7754 129.684 60.2112 130.682C61.6471 131.68 63.5945 132.24 65.625 132.24C67.6556 132.24 69.603 131.68 71.0389 130.682C72.4747 129.684 73.2813 128.331 73.2813 126.92V71.44H167.344C169.375 71.44 171.322 70.8795 172.758 69.8818C174.194 68.8841 175.001 67.531 175.001 66.12V5.32C175.001 3.90905 174.194 2.55589 172.758 1.55819C171.322 0.560499 169.375 0 167.344 0H66.7188C66.5334 0.000390106 66.3481 0.00546012 66.1632 0.0152C65.9841 0.00574972 65.8046 0.000679919 65.625 0Z" fill="white"/>
<path d="M39.384 116.724C16.2095 119.001 0 124.445 0 132.457C0 143.249 27.0836 152 65.6254 152C104.167 152 131.251 143.251 131.251 132.457C131.251 124.444 115.041 119.001 91.869 116.725L88.6577 120.524C106.125 122.206 118.126 125.746 118.126 129.852C118.126 135.608 94.6209 140.275 65.6254 140.275C36.6299 140.275 13.1251 135.608 13.1251 129.852C13.1229 125.76 25.047 122.225 42.5668 120.534C41.5081 119.264 40.4449 117.996 39.384 116.724Z" fill="white"/>
</svg>
