<svg width="17" height="17" viewBox="0 0 17 17" fill="none" xmlns="http://www.w3.org/2000/svg">
<path d="M14.5103 2.4897C11.1907 -0.829912 5.80859 -0.829912 2.48967 2.48977C-0.829912 5.80935 -0.829912 11.1914 2.4898 14.5103C5.80859 17.8299 11.1907 17.8299 14.5103 14.5103C17.8299 11.1914 17.8299 5.80935 14.5103 2.4897ZM13.5086 13.5085C10.7422 16.2749 6.25719 16.2749 3.49154 13.5086C0.725123 10.7428 0.725123 6.25782 3.49147 3.49147C6.25719 0.725089 10.7422 0.725089 13.5086 3.49147C16.2749 6.25786 16.2749 10.7428 13.5086 13.5085Z" fill="#0ECA0E"/>
<path d="M12.249 5.16594L7.79153 9.62339L5.45908 7.29094C5.18246 7.01432 4.73395 7.01432 4.45734 7.29094C4.18072 7.56755 4.18072 8.01606 4.45734 8.29268L7.29066 11.126C7.56728 11.4026 8.01578 11.4026 8.2924 11.126L13.2507 6.16768C13.5273 5.89106 13.5273 5.44255 13.2507 5.16594C12.9741 4.88932 12.5256 4.88932 12.249 5.16594Z" fill="#0ECA0E"/>
</svg>
