<svg width="175" height="148" viewBox="0 0 175 148" fill="none" xmlns="http://www.w3.org/2000/svg">
<path d="M77.2877 5.46086L1.6882 133.696C-1.13224 138.653 1.3102 144.609 7.14009 147.001C8.71023 147.642 10.4112 147.987 12.1558 148H163.355C169.839 147.95 175.058 143.45 175 137.95C174.982 136.476 174.579 135.024 173.823 133.696L98.223 5.46086C97.2445 3.81853 95.748 2.43858 93.9 1.4745C92.0521 0.510424 89.925 0 87.7554 0C85.5857 0 83.4587 0.510424 81.6107 1.4745C79.7627 2.43858 78.2662 3.81853 77.2877 5.46086Z" fill="#F2A600"/>
<path d="M72.0551 14.4628L1.10784 134.56C-1.55268 139.209 0.744382 144.807 6.22535 147.063C7.66465 147.655 9.24933 147.976 10.8486 148H152.598C154.039 147.989 155.464 147.737 156.791 147.259C158.117 146.78 159.32 146.085 160.33 145.213C161.339 144.34 162.137 143.308 162.676 142.174C163.215 141.04 163.486 139.827 163.472 138.605C163.456 137.202 163.068 135.819 162.338 134.56L91.5365 14.4628C90.2896 12.2729 88.0689 10.5923 85.362 9.79012C82.6552 8.98788 79.6836 9.12962 77.0999 10.1842C74.8991 11.089 73.1219 12.5963 72.0551 14.4628Z" fill="#FFCC32"/>
<g opacity="0.2">
<path d="M87.757 37.0273C94.4447 37.0273 99.8239 41.5896 99.3877 46.8916L94.4447 106.077C93.8922 109.209 90.4612 111.379 86.7684 110.911C85.3322 110.731 84.0023 110.164 82.9758 109.294C81.9492 108.423 81.2808 107.295 81.0694 106.077L76.1263 46.8916C75.6902 41.5896 81.0694 37.0273 87.757 37.0273Z" fill="#424242"/>
<path d="M87.7543 115.94C92.5665 115.94 96.4773 119.257 96.4773 123.339C96.4773 127.42 92.5665 130.737 87.7543 130.737C82.9421 130.737 79.0312 127.42 79.0312 123.339C79.0312 119.257 82.9421 115.94 87.7543 115.94Z" fill="#424242"/>
</g>
<path d="M87.757 37.0273C94.4447 37.0273 99.8239 41.5896 99.3877 46.8916L94.4447 106.077C93.8922 109.209 90.4612 111.379 86.7684 110.911C85.3322 110.731 84.0023 110.164 82.9758 109.294C81.9492 108.423 81.2808 107.295 81.0694 106.077L76.1263 46.8916C75.6902 41.5896 81.0694 37.0273 87.757 37.0273Z" fill="url(#paint0_linear_67_12)"/>
<path d="M87.7543 130.737C92.5719 130.737 96.4773 127.425 96.4773 123.339C96.4773 119.253 92.5719 115.94 87.7543 115.94C82.9367 115.94 79.0312 119.253 79.0312 123.339C79.0312 127.425 82.9367 130.737 87.7543 130.737Z" fill="url(#paint1_linear_67_12)"/>
<path d="M72.0548 23.4636C70.3102 25.3132 40.9427 74.018 40.9427 74.018C40.9427 74.018 38.3258 77.7171 41.9604 79.8133C45.3042 81.7861 48.3573 79.4433 49.6657 77.5938C50.9742 75.7442 77.5794 32.0949 78.5971 29.9987C79.4694 27.6929 78.8588 25.1775 76.9979 23.3403C75.1079 21.8607 73.2179 22.1073 72.0548 23.4636Z" fill="#FFF170"/>
<path d="M39.782 92.0316C42.4317 92.0316 44.5797 90.2098 44.5797 87.9626C44.5797 85.7153 42.4317 83.8936 39.782 83.8936C37.1324 83.8936 34.9844 85.7153 34.9844 87.9626C34.9844 90.2098 37.1324 92.0316 39.782 92.0316Z" fill="#FFF170"/>
<defs>
<linearGradient id="paint0_linear_67_12" x1="87.757" y1="34.8695" x2="87.757" y2="131.897" gradientUnits="userSpaceOnUse">
<stop stop-color="#424242"/>
<stop offset="1" stop-color="#212121"/>
</linearGradient>
<linearGradient id="paint1_linear_67_12" x1="87.7543" y1="39.7759" x2="87.7543" y2="136.803" gradientUnits="userSpaceOnUse">
<stop stop-color="#424242"/>
<stop offset="1" stop-color="#212121"/>
</linearGradient>
</defs>
</svg>
